<svg width="12" height="12" viewBox="0 0 12 12" fill="none" xmlns="http://www.w3.org/2000/svg">
<path d="M6 2C7.44179 2 8.81627 2.9921 9.88287 4.09723C10.4047 4.63791 10.8288 5.18061 11.1227 5.58894C11.239 5.75064 11.3345 5.89055 11.407 6C11.3345 6.10945 11.239 6.24936 11.1227 6.41106C10.8288 6.81939 10.4047 7.36209 9.88287 7.90277C8.81627 9.0079 7.44179 10 6 10C4.55821 10 3.18373 9.0079 2.11713 7.90277C1.59529 7.36209 1.17121 6.81939 0.877337 6.41106C0.760967 6.24936 0.665528 6.10945 0.593037 6C0.665528 5.89056 0.760967 5.75064 0.877337 5.58894C1.17121 5.18061 1.59529 4.63791 2.11713 4.09723C3.18373 2.9921 4.55821 2 6 2Z" stroke="#1F7EAD"/>
<circle cx="6.09375" cy="6.09375" r="1.78125" fill="#1F7EAD"/>
</svg>
