<svg width="16" height="16" viewBox="0 0 16 16" fill="none" xmlns="http://www.w3.org/2000/svg">
<path d="M14 8C14 11.3138 11.3138 14 8 14C4.68625 14 2 11.3138 2 8C2 4.68625 4.68625 2 8 2C11.3138 2 14 4.68625 14 8Z" stroke="#C2A30A" stroke-miterlimit="10"/>
<path d="M11.5 8C11.5 9.93302 9.93302 11.5 8 11.5C6.06698 11.5 4.5 9.93302 4.5 8" stroke="#C2A30A" stroke-miterlimit="10"/>
<path d="M6.75 6.125C6.75 6.47018 6.47018 6.75 6.125 6.75C5.77982 6.75 5.5 6.47018 5.5 6.125C5.5 5.77982 5.77982 5.5 6.125 5.5C6.47018 5.5 6.75 5.77982 6.75 6.125Z" stroke="#C2A30A" stroke-miterlimit="10"/>
<path d="M10.5 6.125C10.5 6.47018 10.2202 6.75 9.875 6.75C9.52982 6.75 9.25 6.47018 9.25 6.125C9.25 5.77982 9.52982 5.5 9.875 5.5C10.2202 5.5 10.5 5.77982 10.5 6.125Z" stroke="#C2A30A" stroke-miterlimit="10"/>
</svg>
